HIERARCHY
ROOT Pelvis
{
	OFFSET 0.000000 0.000000 0.000000
	CHANNELS 6 Xposition Yposition Zposition Xrotation Yrotation Zrotation
	JOINT LeftUpLeg_virtual
	{
		OFFSET 0.000000 0.000000 0.000000
		CHANNELS 3 Xrotation Yrotation Zrotation
		JOINT LeftUpLeg
		{
			OFFSET 18.735201 -5.666702 -4.541200
			CHANNELS 3 Xrotation Yrotation Zrotation
			JOINT LeftLeg
			{
				OFFSET -0.021200 -31.938179 0.493100
				CHANNELS 3 Xrotation Yrotation Zrotation
				JOINT LeftFoot
				{
					OFFSET 0.021200 -31.938179 -4.336299
					CHANNELS 3 Xrotation Yrotation Zrotation
					JOINT LeftToeBase
					{
						OFFSET 0.943001 -26.722000 15.023500
						CHANNELS 3 Xrotation Yrotation Zrotation
						End Site
						{
							OFFSET 0 0 0
						}
					}
				}
			}
		}
	}
	JOINT RightUpLeg_virtual
	{
		OFFSET 0.000000 0.000000 0.000000
		CHANNELS 3 Xrotation Yrotation Zrotation
		JOINT RightUpLeg
		{
			OFFSET -18.735201 -5.666702 -4.541200
			CHANNELS 3 Xrotation Yrotation Zrotation
			JOINT RightLeg
			{
				OFFSET 0.018946 -31.938133 0.493100
				CHANNELS 3 Xrotation Yrotation Zrotation
				JOINT RightFoot
				{
					OFFSET -0.018946 -31.938126 -4.336299
					CHANNELS 3 Xrotation Yrotation Zrotation
					JOINT RightToeBase
					{
						OFFSET -0.943001 -26.722004 15.023500
						CHANNELS 3 Xrotation Yrotation Zrotation
						End Site
						{
							OFFSET 0 0 0
						}
					}
				}
			}
		}
	}
	JOINT Hips_virtual
	{
		OFFSET 0.000000 0.000000 0.000000
		CHANNELS 3 Xrotation Yrotation Zrotation
		JOINT Hips
		{
			OFFSET -0.000000 -0.000000 -0.000000
			CHANNELS 3 Xrotation Yrotation Zrotation
			JOINT Spine
			{
				OFFSET 0.000000 10.199997 -0.299500
				CHANNELS 3 Xrotation Yrotation Zrotation
				JOINT Spine1
				{
					OFFSET 0.000000 11.900002 -1.516600
					CHANNELS 3 Xrotation Yrotation Zrotation
					JOINT Spine2
					{
						OFFSET 0.000000 13.600006 -2.842500
						CHANNELS 3 Xrotation Yrotation Zrotation
						JOINT Neck_virtual
						{
							OFFSET 0.000000 0.000000 0.000000
							CHANNELS 3 Xrotation Yrotation Zrotation
							JOINT Neck
							{
								OFFSET 0.000000 9.624100 -2.890100
								CHANNELS 3 Xrotation Yrotation Zrotation
								JOINT Head
								{
									OFFSET 0.000000 14.068802 -1.351900
									CHANNELS 3 Xrotation Yrotation Zrotation
									End Site
									{
										OFFSET 0 0 0
									}
								}
							}
						}
						JOINT LeftShoulder_virtual
						{
							OFFSET 0.000000 0.000000 0.000000
							CHANNELS 3 Xrotation Yrotation Zrotation
							JOINT LeftShoulder
							{
								OFFSET 15.263000 10.923401 -0.547700
								CHANNELS 3 Xrotation Yrotation Zrotation
								JOINT LeftArm
								{
									OFFSET 25.438599 -2.830597 -13.032500
									CHANNELS 3 Xrotation Yrotation Zrotation
									JOINT LeftForeArm
									{
										OFFSET 29.960503 0.000000 0.000000
										CHANNELS 3 Xrotation Yrotation Zrotation
										JOINT LeftHand
										{
											OFFSET 27.849251 0.000000 0.000000
											CHANNELS 3 Xrotation Yrotation Zrotation
											End Site
											{
												OFFSET 0 0 0
											}
										}
									}
								}
							}
						}
						JOINT RightShoulder_virtual
						{
							OFFSET 0.000000 0.000000 0.000000
							CHANNELS 3 Xrotation Yrotation Zrotation
							JOINT RightShoulder
							{
								OFFSET -15.263000 10.923401 -0.547700
								CHANNELS 3 Xrotation Yrotation Zrotation
								JOINT RightArm
								{
									OFFSET -25.438599 -2.830597 -13.032500
									CHANNELS 3 Xrotation Yrotation Zrotation
									JOINT RightForeArm
									{
										OFFSET -29.960503 0.000000 0.000000
										CHANNELS 3 Xrotation Yrotation Zrotation
										JOINT RightHand
										{
											OFFSET -27.849251 0.000000 0.000000
											CHANNELS 3 Xrotation Yrotation Zrotation
											End Site
											{
												OFFSET 0 0 0
											}
										}
									}
								}
							}
						}
					}
				}
			}
		}
	}
}
MOTION
Frames: 7
Frame Time: 0.03333333
0.646258 77.619774 -2.606983 0.000000 0.000000 0.000000 -11.189450 4.366885 1.135780 -39.320135 -4.020616 15.009537 75.568571 -3.325420 0.629641 -26.273684 -2.371629 -14.533061 0.000000 0.000000 0.000000 -11.308411 5.227449 0.658016 -34.304229 -3.894256 -23.899305 74.335968 1.983664 0.324686 -32.806092 -3.073622 16.380404 0.000000 0.000000 0.000000 -11.341953 4.996865 1.079076 -0.974579 -0.036594 -0.515529 23.918551 0.929080 1.366158 13.998871 -0.108234 1.158003 0.000000 0.000000 0.000000 13.417754 0.106517 0.367500 3.664267 -0.103233 -0.338497 0.000000 0.000000 0.000000 14.059553 0.094897 0.310803 -0.059405 -19.244951 -8.529761 -28.992305 -0.498158 -54.329060 -129.202549 -73.982266 -128.008223 0.000000 0.000000 0.000000 13.757978 0.176147 0.177933 4.186819 3.944673 24.454548 -19.750481 27.552466 41.384908 -124.097379 65.738959 116.438579 0.000000 0.000000 0.000000 
0.542931 78.116257 -2.227144 0.000000 0.000000 0.000000 -11.626860 4.019254 1.188502 -37.644581 -3.886235 14.952701 75.008769 -3.278561 0.707701 -26.817819 -2.248722 -14.980987 0.000000 0.000000 0.000000 -11.684062 5.043927 0.720425 -32.699008 -4.077415 -23.396543 73.195586 2.049218 0.089996 -32.646296 -3.026877 16.441295 0.000000 0.000000 0.000000 -11.909994 4.720134 1.140378 -1.167215 0.091399 -0.309259 23.444508 1.248848 1.558461 13.687177 -0.180643 1.052813 0.000000 0.000000 0.000000 12.855681 -0.017374 0.336861 3.375331 -0.101557 -0.303535 0.000000 0.000000 0.000000 13.625320 -0.051519 0.272416 -0.271281 -19.217699 -9.634970 -27.352307 -2.896664 -55.123967 -123.196450 -76.539455 -120.669567 0.000000 0.000000 0.000000 13.323333 0.083420 0.100867 4.380843 4.297539 25.689199 -14.598322 27.588729 38.278859 -123.952811 65.288849 115.155377 0.000000 0.000000 0.000000 
0.395825 78.756287 -1.762930 0.000000 0.000000 0.000000 -12.173538 3.763324 1.200925 -35.465819 -3.800454 14.835434 73.890721 -3.162499 0.812717 -27.184151 -2.054943 -15.210218 0.000000 0.000000 0.000000 -12.211655 4.937520 0.751114 -30.656331 -4.510478 -22.938067 71.744450 2.169922 -0.012946 -32.430640 -3.031668 16.552173 0.000000 0.000000 0.000000 -12.533414 4.420981 1.130238 -1.346740 0.100582 -0.183457 23.061458 1.434492 1.654880 13.291421 -0.267372 0.971400 0.000000 0.000000 0.000000 12.251214 -0.156292 0.345909 3.005432 -0.093186 -0.231251 0.000000 0.000000 0.000000 13.223052 -0.202988 0.282685 -0.413524 -19.001521 -10.510962 -24.794256 -6.298298 -55.453667 -112.784981 -79.447941 -109.102867 0.000000 0.000000 0.000000 12.829158 -0.006496 0.039231 4.514749 4.614526 26.560430 -9.343580 27.869926 34.574964 -124.788376 65.272525 115.263595 0.000000 0.000000 0.000000 
0.210926 79.451820 -1.238894 0.000000 0.000000 0.000000 -12.744575 3.698583 1.155792 -33.150887 -3.753172 14.724421 72.420100 -2.977309 0.923534 -27.266452 -1.798255 -15.162381 0.000000 0.000000 0.000000 -12.810664 4.963839 0.740387 -28.523229 -5.191020 -22.546547 70.224535 2.297958 0.043722 -32.188626 -3.087910 16.596839 0.000000 0.000000 0.000000 -13.091614 4.207827 1.051868 -1.456800 0.076138 -0.232624 22.820487 1.456251 1.650097 12.863798 -0.345154 0.921710 0.000000 0.000000 0.000000 11.656054 -0.274686 0.371035 2.564396 -0.082611 -0.156307 0.000000 0.000000 0.000000 12.820362 -0.328833 0.321351 -0.464950 -18.625335 -11.113329 -21.983708 -9.618248 -55.294425 -100.478858 -82.060242 -95.805124 0.000000 0.000000 0.000000 12.347272 -0.088242 0.004088 4.621102 4.578499 27.174143 -5.574073 28.042815 32.304063 -125.999805 65.996798 115.964127 0.000000 0.000000 0.000000 
0.002638 80.134140 -0.708475 0.000000 0.000000 0.000000 -13.272046 3.858476 1.069700 -30.934367 -3.774354 14.650792 70.757959 -2.804018 1.055863 -27.062441 -1.526100 -14.950441 0.000000 0.000000 0.000000 -13.377648 5.160097 0.705186 -26.526564 -5.999660 -22.168190 68.759009 2.373766 0.201733 -31.977692 -3.196233 16.494524 0.000000 0.000000 0.000000 -13.537916 4.170274 0.912238 -1.420189 0.000057 -0.294017 22.678052 1.353788 1.557235 12.430189 -0.405004 0.893493 0.000000 0.000000 0.000000 11.157309 -0.348706 0.386242 2.073839 -0.062043 -0.101273 0.000000 0.000000 0.000000 12.375376 -0.400242 0.327575 -0.395167 -18.190505 -11.432194 -19.177423 -11.835927 -54.970650 -91.414815 -84.535530 -85.944106 0.000000 0.000000 0.000000 11.926227 -0.139342 -0.025304 4.736618 3.935844 27.671518 -3.879837 28.097095 32.604270 -127.032831 67.745457 116.521525 0.000000 0.000000 0.000000 
-0.188450 80.748009 -0.199409 0.000000 0.000000 0.000000 -13.704635 4.159223 0.983900 -28.971125 -3.830348 14.611836 69.134744 -2.686006 1.196034 -26.687771 -1.262725 -14.691117 0.000000 0.000000 0.000000 -13.865950 5.407999 0.659624 -24.766438 -6.769588 -21.785616 67.475090 2.376578 0.367734 -31.888172 -3.352942 16.266451 0.000000 0.000000 0.000000 -13.891801 4.315927 0.780975 -1.398489 -0.040843 -0.334692 22.506401 1.179834 1.429673 12.007991 -0.418095 0.865426 0.000000 0.000000 0.000000 10.741748 -0.360413 0.378968 1.586429 -0.041652 -0.084663 0.000000 0.000000 0.000000 11.878353 -0.402106 0.275894 -0.211800 -17.704346 -11.576248 -16.742300 -12.839361 -54.954701 -83.017165 -87.240825 -76.895185 0.000000 0.000000 0.000000 11.589333 -0.134085 -0.049429 4.850165 2.914519 28.014977 -3.772580 27.976238 35.026815 -127.268090 70.549345 116.314816 0.000000 0.000000 0.000000 
-0.362751 81.240814 0.262100 0.000000 0.000000 0.000000 -14.021677 4.463002 0.926469 -27.326357 -3.884928 14.606827 67.672845 -2.650670 1.304685 -26.325362 -1.018383 -14.520028 0.000000 0.000000 0.000000 -14.240559 5.635842 0.650942 -23.240876 -7.346401 -21.360986 66.360991 2.328585 0.448816 -31.857467 -3.528821 16.009704 0.000000 0.000000 0.000000 -14.187998 4.591566 0.707918 -1.369037 -0.050392 -0.309051 22.189499 1.005902 1.303659 11.577918 -0.386745 0.835026 0.000000 0.000000 0.000000 10.392435 -0.320729 0.368277 1.138901 -0.028685 -0.114806 0.000000 0.000000 0.000000 11.360096 -0.355351 0.200485 0.038766 -17.301540 -11.740141 -15.060740 -12.571974 -55.556284 20.503654 -89.305072 27.132908 0.000000 0.000000 0.000000 11.271398 -0.092325 -0.076062 4.896619 1.914673 28.170634 -4.439017 27.699412 38.138820 -126.447702 74.077916 115.133876 0.000000 0.000000 0.000000 
